<svg width="33" height="33" viewBox="0 0 33 33" fill="none" xmlns="http://www.w3.org/2000/svg">
<circle cx="16.0781" cy="16.7803" r="16" fill="#3B99FC"/>
<path d="M24.7115 15.676C24.8853 15.5025 25.1674 15.5027 25.3414 15.676L26.6168 16.9485C26.7906 17.1221 26.7904 17.4037 26.6168 17.5774L20.8687 23.3166C20.6948 23.4903 20.4128 23.4903 20.2388 23.3166L16.1588 19.2434C16.1153 19.2003 16.0449 19.2002 16.0015 19.2434L11.9224 23.3166C11.7485 23.4903 11.4665 23.4902 11.2926 23.3166L5.54451 17.5774C5.37059 17.4037 5.37057 17.1221 5.54451 16.9485L6.81892 15.676C6.99285 15.5024 7.27486 15.5024 7.44881 15.676L11.5289 19.7493C11.5724 19.7925 11.6427 19.7926 11.6861 19.7493L15.7652 15.676C15.9391 15.5024 16.2211 15.5025 16.3951 15.676L20.4752 19.7493C20.5187 19.7925 20.589 19.7926 20.6324 19.7493L24.7115 15.676ZM9.78084 12.719C13.2598 9.24552 18.9005 9.24553 22.3795 12.719L22.7984 13.137C22.9723 13.3106 22.9723 13.5922 22.7984 13.7659L21.3658 15.1956C21.2788 15.2823 21.1383 15.2824 21.0513 15.1956L20.4752 14.6204C18.0482 12.1972 14.1132 12.1974 11.6861 14.6204L11.0689 15.2366C10.9819 15.3234 10.8405 15.3234 10.7535 15.2366L9.32185 13.8069C9.14792 13.6332 9.14794 13.3517 9.32185 13.178L9.78084 12.719Z" fill="white"/>
</svg>
